<svg xmlns="http://www.w3.org/2000/svg" data-name="Layer 1" viewBox="0 0 512 512" id="goalkeeper-gloves"><path fill="#237fc0" d="m7.87 216.28 34.97 84.18 155.13-.6 26.51-33.13 48.08-62.92-105.31-34.17-1.01-45.12-59.32-2.03-99.05 93.79z"></path><path fill="#237fc0" d="M59.13 171.85V72.58a25.87 25.87 0 0 1 26-25.74 25.87 25.87 0 0 1 26 25.74v99.27zm104-44.12V34.47a25.87 25.87 0 0 0-26-25.74 25.87 25.87 0 0 0-26 25.74v93.26zm0 44.12V72.58a25.87 25.87 0 0 1 26-25.73 25.87 25.87 0 0 1 26 25.73v99.27l24.7-34.13a26.17 26.17 0 0 1 36.28-5.93 38.7 38.7 0 0 1 16.32 31.61 38.28 38.28 0 0 1-7.3 22.52l-13 17.92zm-104 0V116.7a25.87 25.87 0 0 0-26-25.7 25.87 25.87 0 0 0-26 25.74l.34 99.61 35 84.18z"></path><path fill="#e3232e" d="M50.3 339.11v1.22h2.77a7.6 7.6 0 0 1-2.77-1.22Zm-8-39.25v67.48H198v-67.48Zm89.53 25.64a7.5 7.5 0 0 1-1.6 14.83H53.07Zm-81.54-.17v1.55a7.47 7.47 0 0 1 4.34-1.38h77.2Z"></path><rect width="107.95" height="44.12" x="70.8" y="216.54" fill="#e3232e" rx="15"></rect><path fill="#237fc0" d="m462.88 380.51-65.5 63.4-142.88-61.75-10.46-41.29-19.17-76.83 110.21 10.43 18.84-41.02 55.26 21.67 53.7 125.39z"></path><path fill="#237fc0" d="m433.1 319.21 39.39-91.12a25.87 25.87 0 0 0-13.65-33.94 25.87 25.87 0 0 0-34.08 13.31l-39.39 91.12Z"></path><path fill="#237fc0" d="m355.15 237.45 37-85.61a25.89 25.89 0 0 1 34.08-13.31 25.87 25.87 0 0 1 13.65 33.94l-37 85.61zM337.64 278 377 186.83a25.87 25.87 0 0 0-13.65-33.94 25.87 25.87 0 0 0-34.05 13.31l-39.39 91.12-9.13-41.13a26.18 26.18 0 0 0-30.95-19.84 38.61 38.61 0 0 0-29.76 46.11l4.8 21.59zm95.46 41.21 21.9-50.62a25.86 25.86 0 0 1 34.07-13.31 25.87 25.87 0 0 1 13.66 33.94l-39.84 91.3-65.5 63.39z"></path><path fill="#e3232e" d="M309 434a7.5 7.5 0 0 0-7.47 12.89L378.12 464Zm87.12 9.34L254.5 382.16l-26.23 60.69-.54 1.25 142.87 61.76 10.47-24.22 5.93-13.77 10.36-24Zm-23.72 33a7.42 7.42 0 0 1-2.93-.6l-67.94-28.85 71.54 31.25.86-2a7.79 7.79 0 0 1-1.52.23Zm6.4-11.41a7 7 0 0 0-.69-.95"></path><path fill="#237fc0" d="m387 467.87-5.95 13.77-1.29-.56-6.7-2.9.86-2a7.79 7.79 0 0 1-1.53.17 7.42 7.42 0 0 1-2.93-.6l-67.94-28.85A7.5 7.5 0 0 1 309 434l69.11 30a7 7 0 0 1 .69.95l.24-.55 6.7 2.91 1.27.55Z"></path><rect width="107.95" height="44.12" x="292.39" y="332.37" fill="#e3232e" rx="15" transform="rotate(-156.62 346.379 354.43)"></rect><path fill="#237fc0" d="M137.74 332.83a7.5 7.5 0 0 1-7.5 7.5H53.07a7.6 7.6 0 0 1-2.77-1.22v1.22h-8v-15h8v1.55a7.47 7.47 0 0 1 4.34-1.38h77.2a7.49 7.49 0 0 1 5.9 7.33Z"></path><path fill="none" d="M7.87 213.38v-99.27a25.87 25.87 0 0 1 26-25.74 25.87 25.87 0 0 1 26 25.74v55.15m0 0V70a25.87 25.87 0 0 1 26-25.74 25.87 25.87 0 0 1 26 25.74v99.27"></path><path fill="none" d="M111.86 125.14V31.88a25.87 25.87 0 0 1 26-25.74 25.87 25.87 0 0 1 26 25.74v93.26m0 44.12V70a25.87 25.87 0 0 1 26-25.74 25.87 25.87 0 0 1 26 25.74v99.27m.01-.01 24.7-34.13a26.17 26.17 0 0 1 36.28-5.93 38.7 38.7 0 0 1 16.32 31.61 38.23 38.23 0 0 1-7.3 22.51l-13 17.92M43.18 297.9 7.87 213.38M224.82 264.16l-25.99 33.74M131.84 325.5a7.5 7.5 0 0 1-1.6 14.83H53.07m0 0a7.6 7.6 0 0 1-2.77-1.22v1.22m-7.13-42.43v67.48h155.66V297.9Zm7.13 27.43v1.55a7.47 7.47 0 0 1 4.34-1.38h77.2M71.53 213.95h107.95v44.12H71.53zM385.22 296.09l17.57-40.54 22-50.68a26.11 26.11 0 0 1 34.14-13.51 25.64 25.64 0 0 1 13.64 33.8L455 265.71l-22 50.68m-78-81.13 22-50.69 15.18-35A26.11 26.11 0 0 1 426.29 136a25.63 25.63 0 0 1 13.64 33.8l-37.14 85.71"></path><path fill="none" d="m289.64 255.51 39.54-91.23a26.13 26.13 0 0 1 34.15-13.5A25.63 25.63 0 0 1 377 184.57l-22 50.69-17.57 40.54m-110.63-2.75-2-8.89-5.12-23.05a38.53 38.53 0 0 1-.91-8.28 39 39 0 0 1 30.77-37.93 26.12 26.12 0 0 1 23.34 6.34 25.51 25.51 0 0 1 7.63 13.27l9.11 41M433 316.39l22-50.68a26.11 26.11 0 0 1 34.14-13.51 25.64 25.64 0 0 1 13.62 33.8l-39.54 91.23-66.12 63.89M254.06 380.37 226.8 273.05"></path><path fill="none" d="M378.12 464 309 434a7.5 7.5 0 0 0-7.47 12.89m-47.48-66.55-26.87 62 1.09.46 142 60.29 9.56-22.06 6-13.76 10.38-23.95 1-2.25Zm119 97.8.86-2a7.79 7.79 0 0 1-1.53.17 7.42 7.42 0 0 1-2.93-.6l-67.94-28.85m77.51 17.49-.24.55a7 7 0 0 0-.69-.95m.93.4-.24.55a7 7 0 0 0-.69-.95M404.48 352.9l-17.57 40.55-99.2-42.13 17.57-40.55 99.2 42.13z"></path><path d="M509.63 265a33.57 33.57 0 0 0-31.13-21 33.62 33.62 0 0 0-6 .55l6.51-15a33.14 33.14 0 0 0-17.59-43.68 33.3 33.3 0 0 0-19.14-2.14l4.11-9.49a32.74 32.74 0 0 0 .38-25.37 33.56 33.56 0 0 0-31.13-21 33.5 33.5 0 0 0-30.79 20.12l-4.17 9.63a33.63 33.63 0 0 0-58.8 5.1l-30.35 70-4.09-18.43a32.85 32.85 0 0 0-5.4-12.07l9.49-13.1a45.54 45.54 0 0 0 8.72-26.91 46.33 46.33 0 0 0-19.48-37.73 33.73 33.73 0 0 0-46.69 7.65L223 147.47V71.35a33.53 33.53 0 0 0-52-27.69V33.24a33.5 33.5 0 0 0-67 0v10.41a33.54 33.54 0 0 0-52 27.69v16.43a33.54 33.54 0 0 0-52 27.69v99.22a7.26 7.26 0 0 0 0 .8v.28c0 .09 0 .3.07.44s.09.37.14.55a.75.75 0 0 0 0 .16 6.55 6.55 0 0 0 .28.78l34.7 83.06v66a7.5 7.5 0 0 0 7.5 7.5h155.77a7.5 7.5 0 0 0 7.5-7.5v-64.94l14.8-19.22 25 98.5-25.86 59.68a7.5 7.5 0 0 0 4 9.88l143 60.75a7.42 7.42 0 0 0 2.93.6 7.51 7.51 0 0 0 6.89-4.52L403 446.83 468.06 384a7.5 7.5 0 0 0 1.67-2.41l39.54-91.23a32.78 32.78 0 0 0 .36-25.36ZM191 359.24H50.3v-20.13a7.6 7.6 0 0 0 2.77 1.22h77.17a7.5 7.5 0 0 0 1.6-14.83h-77.2a7.47 7.47 0 0 0-4.34 1.38v-20.13H191Zm19.95-125a46.27 46.27 0 0 0 1.09 9.9l4.36 19.63-21.59 28H47.8L44.58 284 15 213.23v-97.77a18.5 18.5 0 0 1 37 0v55.15a7.33 7.33 0 0 0 .73 3.2 7.43 7.43 0 0 0 5.61 4.2 6.34 6.34 0 0 0 1.16.1 7.45 7.45 0 0 0 7.39-6.26 7.24 7.24 0 0 0 .11-1.24V71.34a18.5 18.5 0 0 1 37 0v99.27a7.24 7.24 0 0 0 .11 1.24 7.5 7.5 0 0 0 14.89-1.24V33.24a18.5 18.5 0 0 1 37 0v137.38a7.49 7.49 0 0 0 14.22 3.31 7.23 7.23 0 0 0 .77-3.08 1.77 1.77 0 0 0 0-.23V71.33a18.5 18.5 0 0 1 37 0V170.92a1.93 1.93 0 0 0 0 .24 4.43 4.43 0 0 0 .06.51 1.38 1.38 0 0 0 0 .2 5 5 0 0 0 .11.53v.17c0 .06.1.35.16.51s.05.13.07.19.13.32.2.47.07.14.1.22.14.27.22.4l.15.25.23.34.2.27.25.3.23.25a4 4 0 0 0 .29.29l.24.22.35.27c.05 0 .09.09.15.13l.08.05.38.25c.09.05.17.11.26.15l.37.19.3.15.33.13.37.14.29.08.43.11h.25l.5.08h1.76a3.5 3.5 0 0 0 .45-.07 1.5 1.5 0 0 0 .29-.06l.42-.1.28-.09.42-.16.24-.1a4.54 4.54 0 0 0 .45-.21l.18-.1.46-.28.14-.09c.15-.11.31-.22.45-.34l.12-.1.42-.38.12-.12c.12-.13.25-.26.37-.4l.13-.17.21-.26 24.7-34.13a18.68 18.68 0 0 1 25.86-4.22 31.32 31.32 0 0 1 13.16 25.5 30.67 30.67 0 0 1-5.87 18.11l-8.64 11.93a33.69 33.69 0 0 0-23.19-3.28 45.84 45.84 0 0 0-10.14 3.49c-.53.25-1 .51-1.55.78a46.62 46.62 0 0 0-24.89 41.03Zm168.1 230.17-.24.55a7 7 0 0 0-.69-.95L309 434a7.5 7.5 0 0 0-7.47 12.89l67.94 28.85a7.42 7.42 0 0 0 2.93.6 7.79 7.79 0 0 0 1.53-.17l-.86 2-7.16 16.51-129.22-54.88 20.91-48.26 129.24 54.89Zm116.45-180L458.38 370l-1.82 4.21-54.23 52.39-7.25 7L260 376.28l-26.29-103.64-1.71-7.71-.05-.22-1.34-6-4-17.85a30.82 30.82 0 0 1-.74-6.66 31.6 31.6 0 0 1 24.87-30.6 18.66 18.66 0 0 1 16.65 4.51q.56.51 1.05 1.05a17.93 17.93 0 0 1 4.35 8.35l9.11 41 .06.19c0 .14.07.27.11.4a12.5 12.5 0 0 0 .24.67c0 .13.11.26.17.38l.13.26c.07.14.15.26.22.39a1.88 1.88 0 0 0 .16.23c.08.13.16.25.25.37l.18.23.28.32.21.22.3.28.24.21c.11.09.22.18.34.26l.24.17.4.25.21.13.49.23.11.06h.07l.53.19.18.07.51.13.22.05.47.08H290.28l.48-.08h.09l.17-.05a3.74 3.74 0 0 0 .45-.12l.29-.1c.13-.05.26-.09.38-.15l.32-.14.33-.17.32-.18.31-.2.28-.2.31-.25.24-.2.31-.3.2-.2.29-.34.17-.23c.09-.11.17-.23.25-.35s.12-.18.17-.27l.2-.34.17-.35c0-.07.07-.13.1-.2l39.53-91.23A18.64 18.64 0 0 1 360 159a18.24 18.24 0 0 1 9.89 10.06 17.89 17.89 0 0 1-.2 13.85l-21.18 48.86-.79 1.83-17.48 40.4-.07.17a7.36 7.36 0 0 0-.61 2.77 7.5 7.5 0 0 0 14.38 3.19l17.35-40 1.2-2.76.2-.45 36-83A18.62 18.62 0 0 1 423 144.3a18.23 18.23 0 0 1 9.9 10.08 17.86 17.86 0 0 1-.21 13.84l-35.6 82.15-1.54 3.56-.34.78L378 294.47a7.5 7.5 0 0 0 13.4 6.7c.13-.24.26-.48.37-.74l18.54-42.77 21-48.45a18.62 18.62 0 0 1 24.32-9.59 18.24 18.24 0 0 1 9.89 10.06 17.87 17.87 0 0 1-.2 13.86l-35 80.8-4.52 10.43a7.48 7.48 0 0 0 3.9 9.86c.24.1.48.19.73.27a3.58 3.58 0 0 0 .35.09 2.66 2.66 0 0 0 .38.1l.3.05H432.78a5.93 5.93 0 0 0 .84-.06h.25a7.18 7.18 0 0 0 .92-.2h.09c.27-.09.54-.19.81-.31l.22-.1a7.45 7.45 0 0 0 .83-.45h.05a6.14 6.14 0 0 0 .72-.54l.18-.16a6.5 6.5 0 0 0 .53-.52l.16-.16a7.3 7.3 0 0 0 .57-.77 2.39 2.39 0 0 0 .13-.21 5.91 5.91 0 0 0 .47-.9l22-50.68a18.62 18.62 0 0 1 24.32-9.59 18.23 18.23 0 0 1 9.9 10.08 17.86 17.86 0 0 1-.27 13.81ZM179.1 207.8H71.16a7.5 7.5 0 0 0-7.5 7.5v44.12a7.5 7.5 0 0 0 7.5 7.5H179.1a7.5 7.5 0 0 0 7.5-7.5V215.3a7.5 7.5 0 0 0-7.5-7.5Zm-7.5 44.12H78.66V222.8h92.94ZM407 347.36l-99.2-42.13a7.51 7.51 0 0 0-9.82 3.92l-17.53 40.55a7.5 7.5 0 0 0 3.95 9.88l99.2 42.13a7.42 7.42 0 0 0 2.93.6 7.51 7.51 0 0 0 6.89-4.52L411 357.24a7.5 7.5 0 0 0-3.95-9.88ZM382.61 385l-85.39-36.27 11.61-26.79 85.39 36.27Z"></path></svg>