<svg xmlns="http://www.w3.org/2000/svg" data-name="Layer 4" viewBox="0 0 64 64" id="hoodie"><path fill="#ffc94e" d="M56.774 51.613v6.193H46.926a4.118 4.118 0 0 0 .558-2.064V51.613h9.29zM17.074 57.806H7.226V51.613h9.29v4.129A4.118 4.118 0 0 0 17.074 57.806z"></path><path fill="#f29c40" d="M17.074 57.806H7.226V55.742h3.1a2.064 2.064 0 0 0 2.064-2.065V51.613h4.129v4.129A4.118 4.118 0 0 0 17.074 57.806zM46.926 57.806h9.848V55.742h-3.1a2.064 2.064 0 0 1-2.064-2.065V51.613H47.484v4.129A4.118 4.118 0 0 1 46.926 57.806z"></path><path fill="#ffdaaa" d="M55.845,14.266a4.114,4.114,0,0,0-1.786-3.18l-8.64-5.925-.01-.1A5.147,5.147,0,0,0,40.258,0H23.742a5.147,5.147,0,0,0-5.151,5.058l-.01.1-8.64,5.925a4.114,4.114,0,0,0-1.786,3.18l-1.961,38.4h9.29v3.086a4.118,4.118,0,0,0,.557,2.065,4.073,4.073,0,0,0,1.507,1.507v2.611A2.065,2.065,0,0,0,19.613,64H44.387a2.065,2.065,0,0,0,2.065-2.065V59.324a4.073,4.073,0,0,0,1.507-1.507,4.118,4.118,0,0,0,.557-2.065V52.666h9.29Z"></path><path fill="#c29588" d="M37.161 9.93V30.968h0A2.065 2.065 0 0 1 35.1 28.9V11.644zM26.839 9.93V30.968A2.079 2.079 0 0 1 24.774 28.9V8.227z"></path><path fill="#783737" d="M37.161 30.968a1.032 1.032 0 0 1-1.032-1.033V10.323a1.033 1.033 0 1 1 2.065 0V29.935A1.033 1.033 0 0 1 37.161 30.968zM26.839 30.968a1.033 1.033 0 0 1-1.033-1.033V10.323a1.033 1.033 0 1 1 2.065 0V29.935A1.032 1.032 0 0 1 26.839 30.968z"></path><path fill="#ffc94e" d="M46.452 59.314v2.621A2.065 2.065 0 0 1 44.387 64H19.613a2.065 2.065 0 0 1-2.065-2.065V59.314a4.118 4.118 0 0 0 2.065.557h2.064v-9.29L32 44.387l10.323 6.194v9.29h2.064A4.118 4.118 0 0 0 46.452 59.314zM38.152 4.129L40.258 0a5.147 5.147 0 0 1 5.151 5.058L32 16.2z"></path><polygon fill="#c29588" points="38.152 4.129 32 16.196 25.848 4.129 38.152 4.129"></polygon><path fill="#ffc94e" d="M25.848,4.129,32,16.2,18.591,5.058A5.147,5.147,0,0,1,23.742,0Z"></path><path fill="#f29c40" d="M22.741 3.1l4.782 9.381L32 16.2 25.848 4.129 23.742 0a5.1 5.1 0 0 0-2.294.561zM41.259 3.1l-4.782 9.381L32 16.2 38.152 4.129 40.258 0a5.1 5.1 0 0 1 2.294.561z"></path><path fill="#c29588" d="M46.452,59.314v2.621A2.071,2.071,0,0,1,44.387,64H19.613a2.071,2.071,0,0,1-2.065-2.065V59.314a4.118,4.118,0,0,0,2.065.557H44.387A4.118,4.118,0,0,0,46.452,59.314Z"></path><polygon fill="#f29c40" points="32 44.387 26.839 52.645 26.839 59.871 21.677 59.871 21.677 50.581 32 44.387"></polygon><path fill="#c29588" d="M15.484 18.581a2.064 2.064 0 0 1 2.064 2.064V59.417a4.137 4.137 0 0 1-2.064-3.572V18.581zM48.516 18.581a2.064 2.064 0 0 0-2.064 2.064V59.417a4.137 4.137 0 0 0 2.064-3.572V18.581z"></path></svg>