<svg xmlns="http://www.w3.org/2000/svg" data-name="Layer 1" viewBox="0 0 64 64" id="plain-round-neck-t-shirt"><path fill="#36c8e3" d="M63,30.59l-3.76,4.93L45,25.67V53.14H19V25.67L4.73,35.52,1,30.59,19.72,12.74,26,10.86c0,5,2.68,9,6,9s6-4,6-9l6.28,1.88Z"></path><path fill="#143751" d="M45,54.11H19a1,1,0,0,1-1-1V27.52L5.28,36.32A1,1,0,0,1,4,36.11L.2,31.18a1,1,0,0,1,.1-1.29L19.05,12a1,1,0,0,1,.39-.23l6.29-1.88a1,1,0,0,1,1.25.93c0,4.37,2.3,8.07,5,8.07s5-3.7,5-8.07a1,1,0,0,1,1.25-.93l6.28,1.88a1,1,0,0,1,.39.23L63.7,29.89a1,1,0,0,1,.1,1.29L60,36.11a1,1,0,0,1-1.32.21L46,27.52V53.14A1,1,0,0,1,45,54.11Zm-25.1-1.94H44.07V25.67a1,1,0,0,1,1.52-.8L59.06,34.2l2.67-3.5-18-17.09-4.86-1.45c-.43,5-3.3,8.72-6.9,8.72s-6.48-3.74-6.91-8.72L20.22,13.6l-18,17.09,2.67,3.5,13.47-9.33a1,1,0,0,1,1.52.8Z"></path><path fill="#143751" d="M32,32a1,1,0,0,1-1-1V19.9a1,1,0,1,1,1.94,0V31.06A1,1,0,0,1,32,32Z"></path><circle cx="34.92" cy="22.84" r=".94" fill="#143751"></circle><circle cx="34.92" cy="26.42" r=".94" fill="#143751"></circle><circle cx="34.92" cy="30" r=".94" fill="#143751"></circle></svg>