<svg xmlns="http://www.w3.org/2000/svg" viewBox="0 0 64 64" id="pants"><path fill="#38424e" d="M20,7v5.33A4.66894,4.66894,0,0,1,15.33,17H13.74c.06-3.33.11-6.67.16-10Z"></path><path fill="#636a74" d="M40,7h4v5.33A4.66894,4.66894,0,0,0,48.67,17h1.59q.36,22.995.74,46H36q-1.485-18.945-2.98-37.9A1.073,1.073,0,0,0,32,24V19a3.9989,3.9989,0,0,0,4-4V7Z"></path><path fill="#7a8089" d="M36,7v8a3.9989,3.9989,0,0,1-4,4V7Z"></path><path fill="#38424e" d="M50.1,7c.05,3.33.1,6.67.16,10H48.67A4.66894,4.66894,0,0,1,44,12.33V7Z"></path><path fill="#4d5662" d="M50 1q.045 3 .1 6H40V1zM24 1V7H13.9q.06-3 .1-6z"></path><polygon fill="#4d5662" points="40 1 40 7 36 7 32 7 32 1 40 1"></polygon><rect width="8" height="6" x="24" y="1" fill="#4d5662"></rect><path fill="#636a74" d="M24,7h8V24a1.073,1.073,0,0,0-1.02,1.1L28,63H13q.36-23.01.74-46h1.59A4.66894,4.66894,0,0,0,20,12.33V7Z"></path><path d="M51,64.001H36a1,1,0,0,1,0-2H49.9834l-.96778-60H14.98438l-.96778,60H28a1,1,0,0,1,0,2H13a1.00038,1.00038,0,0,1-1-1.01563l1-62A1,1,0,0,1,14,.001H50a1,1,0,0,1,1,.98437l1,62A1.00038,1.00038,0,0,1,51,64.001Z"></path><path d="M35.999,64.001a1.00009,1.00009,0,0,1-.99609-.92188l-2.9834-37.90527a.51572.51572,0,0,0-.02246-.124c-.00391.0293-.01269.07032-.0166.125l-2.9834,37.9043a1.00013,1.00013,0,1,1-1.99414-.15625l2.9834-37.90527a2.01387,2.01387,0,0,1,4.02734-.001l2.9834,37.90625a1.00115,1.00115,0,0,1-.919,1.0752Q36.03858,64.001,35.999,64.001Z"></path><path d="M32,24.999a.99942.99942,0,0,1-1-1v-23a1,1,0,0,1,2,0v23A.99942.99942,0,0,1,32,24.999Z"></path><path d="M50.09961,8.001H13.90039a1,1,0,0,1,0-2H50.09961a1,1,0,0,1,0,2Z"></path><path d="M32 19.999a1 1 0 010-2 3.00328 3.00328 0 003-3v-8a1 1 0 012 0v8A5.00588 5.00588 0 0132 19.999zM15.33008 18.001H13.74023a1 1 0 010-2h1.58985A3.67429 3.67429 0 0019 12.33105V7.001a1 1 0 112 0v5.33007A5.6769 5.6769 0 0115.33008 18.001zM50.25977 18.001H48.66992A5.6769 5.6769 0 0143 12.33105V7.001a1 1 0 112 0v5.33007A3.67429 3.67429 0 0048.66992 16.001h1.58985a1 1 0 010 2zM24 10.001a.99943.99943 0 01-1-1v-8a1 1 0 112 0v8A.99943.99943 0 0124 10.001zM40 9.999a.99942.99942 0 01-1-1v-8a1 1 0 012 0v8A.99942.99942 0 0140 9.999zM35.01953 5.001a1 1 0 01-.00976-2h.00976a1 1 0 010 2z"></path></svg>