<svg xmlns="http://www.w3.org/2000/svg" enable-background="new 0 0 512 512" viewBox="0 0 512 512" id="raincoat"><path fill="#f8d707" d="M320,133L320,133l0-64c0-35.3-28.7-64-64-64h0c-35.3,0-64,28.7-64,64v64l0,0
			c-40.6,21.4-69.9,59.5-80.2,104.2L66,437h67.8l-5.8,70h256l-5.8-70H446l-45.8-199.8C389.9,192.5,360.6,154.4,320,133z"></path><path fill="#fffa5a" d="M215,47.7L215,47.7c-12.7,0-23,10.3-23,23v24c0,12.7,10.3,23,23,23h0c12.7,0,23-10.3,23-23
			v-24C238,58,227.7,47.7,215,47.7z"></path><path fill="#eda900" d="M256 27L256 27c-23.2 0-42 18.8-42 42v64l42 18 42-18V69C298 45.8 279.2 27 256 27zM133.8 437l20.3-245 0 0c-11.3 17.3-18.6 36.9-21.5 57.4L106 437 133.8 437zM378.2 437l-20.3-245v0c14.1 26.3 23.4 55 27.2 84.6L406 437 378.2 437z"></path><rect width="10" height="76" x="226" y="158" fill="#fffcfa"></rect><rect width="10" height="76" x="276" y="158" fill="#fffcfa"></rect><rect width="10" height="385" x="251" y="122" fill="#eda900"></rect><rect width="26" height="60" x="179" y="377" fill="#eda900" transform="rotate(45.001 192.006 407.019)"></rect><rect width="26" height="60" x="307" y="377" fill="#eda900" transform="rotate(-45.001 319.997 407.025)"></rect><polygon fill="#eda900" points="75.4 396 71.5 413 134 413 134 396"></polygon><polygon fill="#eda900" points="436.6 396 377 396 377 413 440.5 413"></polygon></svg>