<svg xmlns="http://www.w3.org/2000/svg" enable-background="new 0 0 64 64" viewBox="0 0 64 64" id="denim-jacket"><path fill="#3a4f7a" d="M59,37c-0.2,4.3-1.5,12.3-2,16h-9c0.5,3.1,0.2,1.4,1,6H15c0.3-2.1,0.1-0.3,1-6h-1H7l-1-3
		c-0.5-3.7-0.8-8.7-1-13c-0.2-3.9-0.1-6.6,0-10c0.2-1.6,0.7-5,3-8.4c2.1-3.1,4.7-4.8,6.1-5.6c2.3-1,4.4-2.2,6.4-3.7
		c2-1.5,3.8-3.2,5.3-5.1C25.9,4.1,25.9,4.1,26,4h12c0.1,0.1,0.1,0.1,0.2,0.2C41.3,8,45.4,11,49.9,13l3.1,2.2c1,0.9,2.1,2,3,3.4
		c2.3,3.4,2.8,6.8,3,8.4C59.1,30.4,59.2,33.1,59,37z"></path><path fill="#25334c" d="M30 12l.4-.7L26 4c-.1.1-.1.1-.2.2-.1.1-.2.2-.3.3L30 12zM39.2 5.3c-.3-.4-.7-.7-1-1.1C38.1 4.1 38.1 4.1 38 4l-.1.1C38.3 4.5 38.7 4.9 39.2 5.3zM59 27c-.2-1.6-.7-5-3-8.4-1-1.4-2-2.5-3-3.4l-.1-.1c.4.5.8 1 1.2 1.5 2.3 3.4 2.8 6.8 3 8.4.1 3.4.2 6.1 0 10-.1 3.6-.4 11.8-.8 15.2-.1 1-1 1.8-2 1.8-.9 0-2.1 0-3.3 0-2.2 0-3.9 1.8-4 3.9 0 .8-1.2 1.1-2.3 1.1-6.9 0-28.5 0-28.5 0-.5 0-.9.4-1 .9 0 0 0 0 0 0-.1.6.4 1.1 1 1.1 4.8 0 24 0 30.6 0 1.2 0 1.4-1 1.3-3.7 0-1.2 1-2.2 2.2-2 1.8.2 4.2.4 5.9.6 1.1.1 2.1-.7 2.2-1.8.4-3.4.6-11.5.8-15C59.2 33.1 59.1 30.4 59 27zM13.6 50.8V51c0 .6-.4 1-1 1H7.8c-.7 0-1.1.6-1 1.2l0 0c.1.4.5.8 1 .8l6.9 0c.5 0 .9-.3 1-.8.2-.8.3-1.7.3-2.3 0-.5-.3-.9-.8-.9-.2 0-.5 0-.7 0C14 50 13.6 50.4 13.6 50.8z"></path><path fill="#25334c" d="M46.9 58C46.3 52.4 46 46.7 46 41c0-6.4.3-12.8 1-19.1.1-.5.6-.9 1.1-.9.5.1.9.6.9 1.1-.7 6.2-1 12.6-1 18.9 0 6 .4 11.1 1 17H46.9zM42.4 8.4L36 18l-4-4 .5-.9L38 4c.1.1.1.1.2.2.3.4.6.8 1 1.1C39.5 5.7 39.7 6 40 6.3l.2.2C40.5 6.7 40.8 7 41 7.2c.3.3.7.6 1.1.9C42.2 8.2 42.3 8.3 42.4 8.4zM32 14l-4 4-6.3-9.5 0-.1c.1-.1.2-.1.2-.2.6-.5 1.1-1 1.7-1.5.1-.1.3-.3.4-.4.6-.7 1.3-1.3 1.9-2C25.9 4.1 25.9 4.1 26 4l5.5 9.1L32 14z"></path><path fill="#579bb1" d="M44,26v7.9c-0.6,0.4-1.8,1-3.4,1.1c-2.3,0.2-4-0.8-4.6-1.1c0-2.6,0-5.2,0-7.9H44z"></path><path fill="#427884" d="M42,26v5.8c0,0.7-0.4,1.3-1,1.6c-0.6,0.3-1.4,0.5-2.4,0.6c-1,0.1-1.8-0.1-2.6-0.3c0,0,0,0.1,0,0.1
		c0.6,0.4,2.3,1.3,4.6,1.1c1.6-0.1,2.8-0.8,3.4-1.1V26H42z"></path><path d="M49 60h-9c-.6 0-1-.4-1-1 0-.5.4-1 1-1h7.9C47.3 52.5 47 46.4 47 40.7c0-6.3.3-12.7 1-18.9.1-.5.6-.9 1.1-.9.5.1.9.5.9 1.1-.7 6.2-1 12.5-1 18.7 0 6.1.4 12.5 1 18.2 0 .3-.1.6-.3.8C49.6 59.9 49.3 60 49 60zM36 60H15c-.3 0-.6-.1-.7-.3-.2-.2-.3-.5-.3-.8.6-5.7 1-12.2 1-18.2 0-2.6 0-5.3-.2-7.9 0-.5.4-1 1-1 .5 0 1 .4 1 .9.1 2.6.2 5.3.2 8 0 5.7-.3 11.9-.9 17.3H36c.6 0 1 .4 1 1C37 59.6 36.6 60 36 60zM15.6 29.8c-.5 0-1-.4-1-.9-.2-2.3-.4-4.6-.6-6.9-.1-.5.3-1 .9-1.1.5-.1 1 .3 1.1.9.3 2.3.5 4.7.6 7C16.6 29.3 16.2 29.7 15.6 29.8 15.7 29.8 15.6 29.8 15.6 29.8zM32 14.9c-.4 0-.7-.2-.9-.5l-6-9.9c-.2-.3-.2-.7 0-1C25.3 3.2 25.6 3 26 3h12c.4 0 .7.2.9.5.2.3.2.7 0 1l-6 9.9C32.7 14.7 32.4 14.9 32 14.9zM27.8 5l4.2 7 4.2-7H27.8z"></path><path d="M28 18.9C28 18.9 27.9 18.9 28 18.9c-.4 0-.7-.2-.8-.4l-6-8.9C20.9 9 21 8.4 21.4 8.1c.5-.3 1.1-.2 1.4.3l5.3 7.9 3.1-3.1c.4-.4 1-.4 1.4 0s.4 1 0 1.4l-4 4C28.5 18.8 28.3 18.9 28 18.9zM32 59.9c-.6 0-1-.4-1-1V40.5c0-.5.4-1 1-1 .6 0 1 .4 1 1v18.3C33 59.4 32.6 59.9 32 59.9z"></path><path d="M32,37.7c-0.6,0-1-0.4-1-1V13.9c0-0.4,0.2-0.8,0.6-0.9c0.4-0.2,0.8-0.1,1.1,0.2l3.1,3.1l5.3-7.9c0.3-0.5,0.9-0.6,1.4-0.3
				C43,8.4,43.1,9,42.8,9.5l-6,8.9c-0.2,0.2-0.4,0.4-0.7,0.4c-0.3,0-0.6-0.1-0.8-0.3L33,16.3v20.4C33,37.3,32.6,37.7,32,37.7z"></path><path d="M49.9 13.9c-.1 0-.3 0-.4-.1-4.6-2-8.9-5.3-12.3-9.2-.4-.4-.3-1 .1-1.4.4-.4 1.1-.3 1.4.1 3.1 3.7 7.2 6.8 11.5 8.7.5.2.7.8.5 1.3C50.6 13.7 50.3 13.9 49.9 13.9zM58 51.1C58 51.1 58 51.1 58 51.1l-9.1-.5c-.6 0-1-.5-.9-1 0-.5.5-1 1.1-.9l8.1.4c.4-3.3.7-7.7.9-11.9.1-3.6.1-6.2 0-9.8-.2-1.8-.7-5.3-2.8-8.3-.8-1.2-1.8-2.3-2.8-3.2-.4-.4-.5-1-.1-1.4.4-.4 1-.5 1.4-.1 1.2 1.1 2.3 2.3 3.2 3.6 2.2 3.2 2.9 6.8 3.1 9.3.1 3.7.1 6.4 0 10-.2 4.7-.6 9.5-1 13C58.9 50.7 58.5 51.1 58 51.1zM7 55c-.5 0-.9-.3-1-.8l-1-4c-.1-.5.2-1.1.7-1.2C6.3 49 6.8 49.3 7 49.8L7.8 53l7.2-.4c.6 0 1 .4 1.1.9 0 .5-.4 1-.9 1.1L7 55C7 55 7 55 7 55z"></path><path d="M57 55C57 55 57 55 57 55l-8.1-.5c-.6 0-1-.5-.9-1.1 0-.5.5-1 1.1-.9l7.2.4.8-3.2c.1-.5.7-.9 1.2-.7.5.1.9.7.7 1.2l-1 4C57.9 54.7 57.5 55 57 55zM40 35.7c-1.6 0-3.1-.4-4.5-1.3-.3-.2-.5-.5-.5-.8v-7.8c0-.5.4-1 1-1h8c.6 0 1 .4 1 1v7.8c0 .3-.2.7-.5.8C43.2 35.3 41.6 35.7 40 35.7zM37 33c1.9 1 4.1 1 6 0v-6.2h-6V33zM28 27.8h-8c-.6 0-1-.4-1-1s.4-1 1-1h8c.6 0 1 .4 1 1S28.6 27.8 28 27.8z"></path><path d="M6,51.1c-0.5,0-0.9-0.4-1-0.9c-0.4-3.5-0.8-8.3-1-13c-0.1-3.6-0.1-6.3,0-10c0.2-2.2,0.9-5.5,3.2-8.8
				c2.1-3.1,4.8-5.4,6.5-6.4c4.4-1.9,8.5-5,11.6-8.7c0.4-0.4,1-0.5,1.4-0.1c0.4,0.4,0.5,1,0.1,1.4c-3.3,4-7.7,7.2-12.3,9.2
				c-1,0.5-3.5,2.5-5.7,5.7c-2,2.9-2.6,5.9-2.8,7.8c-0.1,3.5-0.1,6.2,0,9.8c0.2,4.2,0.5,8.6,0.9,11.9l8.1-0.4c0.6,0,1,0.4,1.1,0.9
				c0,0.5-0.4,1-0.9,1L6,51.1C6,51.1,6,51.1,6,51.1z"></path><circle cx="40" cy="28.8" r="1"></circle></svg>