<svg xmlns="http://www.w3.org/2000/svg" data-name="Layer 1" viewBox="0 0 512 512" id="beanie"><path fill="#e53950" d="M256 131.5a216 216 0 0 1 216 216v66H40v-66a216 216 0 0 1 216-216Z"></path><path fill="#ca2e43" d="M346.219 151.2a215.55 215.55 0 0 1 78.159 166.3 66 66 0 0 1-66 66H40v30h432v-66a216.024 216.024 0 0 0-125.781-196.3Z"></path><path fill="#f1f6f9" d="M319.876 86.376c0 5.361-8.569 9.525-9.89 14.47-1.368 5.115 3.931 12.997 1.34 17.476-2.63 4.543-12.129 3.878-15.816 7.565s-3.022 13.186-7.565 15.815c-4.479 2.591-12.36-2.707-17.476-1.34-4.945 1.321-9.108 9.89-14.469 9.89-5.361 0-9.525-8.569-14.469-9.89-5.116-1.367-12.998 3.931-17.477 1.34-4.543-2.629-3.877-12.128-7.565-15.816s-13.186-3.021-15.815-7.565c-2.591-4.479 2.707-12.36 1.34-17.476-1.321-4.945-9.89-9.108-9.89-14.469 0-5.36 8.569-9.524 9.89-14.469 1.368-5.116-3.931-12.998-1.34-17.477 2.63-4.543 12.128-3.877 15.816-7.565s3.022-13.186 7.565-15.815c4.479-2.591 12.36 2.708 17.476 1.34 4.945-1.321 9.108-9.89 14.469-9.89 5.361 0 9.525 8.569 14.469 9.89 5.116 1.368 12.998-3.93 17.477-1.34 4.543 2.63 3.877 12.129 7.565 15.816s13.186 3.022 15.815 7.565c2.591 4.48-2.707 12.361-1.34 17.477 1.321 4.944 9.89 9.107 9.89 14.468Z"></path><path fill="#f1f6f9" d="M311.33 118.32c-2.63 4.55-12.13 3.88-15.82 7.57-3.57 3.57-3.06 12.59-7.15 15.54a3.596 3.596 0 0 1-.41.27 2.786 2.786 0 0 1-.34.18 9.09 9.09 0 0 1-5.65.2c-3.72-.74-7.85-2.42-11.03-1.82a3.802 3.802 0 0 0-.46.1c-4.95 1.32-9.11 9.89-14.47 9.89s-9.52-8.57-14.47-9.89c-5.11-1.37-13 3.93-17.48 1.34a5.978 5.978 0 0 1-2.03-2.06c-2.41-3.85-2.52-10.74-5.53-13.75-1.39-1.39-3.59-2.16-5.94-2.82-3.92-1.11-8.24-1.91-9.88-4.75-2.59-4.48 2.71-12.36 1.34-17.48-1.32-4.94-9.89-9.1-9.89-14.46s8.57-9.53 9.89-14.47c1.37-5.12-3.93-13-1.34-17.48 2.63-4.54 12.13-3.88 15.82-7.56 3.69-3.69 3.02-13.19 7.56-15.82 4.48-2.59 12.37 2.71 17.48 1.34 4.95-1.32 9.11-9.89 14.47-9.89s9.52 8.57 14.47 9.89a8.249 8.249 0 0 0 2.79.19c4.88-.38 10.96-3.68 14.69-1.53a5.327 5.327 0 0 1 1.44 1.24c3 3.61 2.88 11.34 6.12 14.58a3.796 3.796 0 0 0 .37.33v.01c3.92 3.3 12.9 2.83 15.45 7.22 2.59 4.48-2.71 12.36-1.34 17.48 1.32 4.94 9.89 9.11 9.89 14.47s-8.57 9.52-9.89 14.47c-1.37 5.11 3.93 12.99 1.34 17.47Z"></path><path fill="#dde8ef" d="M311.33 118.32c-2.63 4.55-12.13 3.88-15.82 7.57-3.57 3.57-3.06 12.59-7.15 15.54a3.596 3.596 0 0 1-.41.27 2.786 2.786 0 0 1-.34.18 6.936 6.936 0 0 1-5.65.2c-3.08-.96-6.37-2.9-11.03-1.82a3.802 3.802 0 0 0-.46.1c-4.95 1.32-9.11 9.89-14.47 9.89s-9.52-8.57-14.47-9.89c-5.11-1.37-13 3.93-17.48 1.34a5.978 5.978 0 0 1-2.03-2.06c32.12-6.34 56.62-29.34 61.81-57.51 4.46-24.2-6.9-43.75-10.57-49.55 4.88-.38 10.96-3.68 14.69-1.53a5.327 5.327 0 0 1 1.44 1.24c3 3.61 2.88 11.34 6.12 14.58a3.796 3.796 0 0 0 .37.33v.01c3.92 3.3 12.9 2.83 15.45 7.22 2.59 4.48-2.71 12.36-1.34 17.48 1.32 4.94 9.89 9.11 9.89 14.47s-8.57 9.52-9.89 14.47c-1.37 5.11 3.93 12.99 1.34 17.47Z"></path><path fill="#f1f6f9" d="M504.5 443.5v16a29.998 29.998 0 0 1-30 30h-437a29.998 29.998 0 0 1-30-30v-16a30.014 30.014 0 0 1 30-30h437a30.014 30.014 0 0 1 30 30Z"></path><path fill="#dde8ef" d="M503.27 435.01a29.98 29.98 0 0 0-28.77-21.51h-15.231a29.731 29.731 0 0 1 3.228 13.5v16a29.998 29.998 0 0 1-30 30H10.71A29.99 29.99 0 0 0 37.5 489.5h437a29.998 29.998 0 0 0 30-30v-16a29.742 29.742 0 0 0-1.23-8.49Z"></path><path fill="#282828" d="M174.395 283.521a7.5 7.5 0 0 0-3.827 14.504l18.12 4.78-16.255 9.24a7.5 7.5 0 1 0 7.412 13.042l16.558-9.412-4.882 17.936a7.5 7.5 0 1 0 14.474 3.94l8.798-32.33 32.513-18.48v38.107l-24.038 23.666a7.5 7.5 0 1 0 10.524 10.69l13.514-13.307v18.74a7.5 7.5 0 0 0 15 0v-18.74l13.515 13.306a7.5 7.5 0 1 0 10.523-10.69l-24.038-23.665v-39.462l34.897 19.836 8.798 32.329a7.5 7.5 0 0 0 14.474-3.94l-4.881-17.936 16.557 9.412a7.5 7.5 0 0 0 7.412-13.041l-16.256-9.24 18.12-4.78a7.5 7.5 0 0 0-3.825-14.504l-32.936 8.688-33.49-19.036 33.49-19.037 32.936 8.688a7.5 7.5 0 0 0 3.826-14.504l-18.12-4.78 18.64-10.595a7.5 7.5 0 0 0-7.413-13.04l-18.942 10.766 4.882-17.937a7.5 7.5 0 0 0-14.474-3.94l-8.798 32.33-34.897 19.836v-38.107l24.038-23.666a7.5 7.5 0 0 0-10.523-10.69l-13.515 13.306v-21.449a7.5 7.5 0 0 0-15 0v21.449l-13.514-13.306a7.5 7.5 0 0 0-10.524 10.69l24.038 23.666v36.752l-32.513-18.48-8.798-32.33a7.5 7.5 0 0 0-14.474 3.94l4.882 17.936-18.942-10.767a7.5 7.5 0 0 0-7.412 13.041l18.64 10.595-18.12 4.78a7.5 7.5 0 1 0 3.826 14.504l32.935-8.688 33.49 19.037-33.49 19.036Zm337.603 158.975a7.556 7.556 0 0 0-.046-.815 37.555 37.555 0 0 0-32.454-35.342v-58.843a223.561 223.561 0 0 0-173.56-217.882c4.054-1.114 9.13-2.791 11.877-7.54 2.954-5.105 1.506-10.567.342-14.956a25.228 25.228 0 0 1-.907-4.297 26.244 26.244 0 0 1 2.8-3.074c3.09-3.092 7.324-7.326 7.324-13.375s-4.233-10.283-7.325-13.375a26.41 26.41 0 0 1-2.799-3.073 25.228 25.228 0 0 1 .907-4.296c1.164-4.39 2.613-9.852-.342-14.957-2.982-5.154-8.71-6.693-12.894-7.816a25.684 25.684 0 0 1-4.087-1.318 25.689 25.689 0 0 1-1.317-4.088c-1.124-4.182-2.662-9.91-7.817-12.893-5.105-2.954-10.568-1.507-14.957-.342a25.232 25.232 0 0 1-4.296.906 26.322 26.322 0 0 1-3.074-2.799c-3.092-3.091-7.327-7.325-13.375-7.325s-10.283 4.234-13.375 7.325a26.323 26.323 0 0 1-3.074 2.8 25.232 25.232 0 0 1-4.296-.907c-4.388-1.163-9.849-2.613-14.956.34-5.154 2.983-6.693 8.71-7.816 12.893a25.684 25.684 0 0 1-1.318 4.09 25.66 25.66 0 0 1-4.088 1.317c-4.183 1.124-9.912 2.662-12.894 7.817-2.954 5.104-1.506 10.566-.342 14.955a25.228 25.228 0 0 1 .907 4.297 26.244 26.244 0 0 1-2.8 3.074c-3.09 3.092-7.324 7.326-7.324 13.375s4.234 10.283 7.325 13.375a26.411 26.411 0 0 1 2.8 3.073 25.229 25.229 0 0 1-.908 4.296c-1.164 4.39-2.612 9.852.342 14.957 2.745 4.745 7.816 6.425 11.868 7.538a223.273 223.273 0 0 0-92.671 45.796 7.5 7.5 0 0 0 9.577 11.545 208.168 208.168 0 0 1 92.341-43.975 13.472 13.472 0 0 0 5 5.211c5.105 2.955 10.568 1.506 14.957.342a25.232 25.232 0 0 1 4.296-.906 26.323 26.323 0 0 1 3.074 2.799c3.092 3.092 7.327 7.325 13.375 7.325s10.283-4.233 13.375-7.325a26.322 26.322 0 0 1 3.074-2.799 25.232 25.232 0 0 1 4.296.906c4.388 1.165 9.85 2.616 14.956-.34a13.48 13.48 0 0 0 5-5.213 208.552 208.552 0 0 1 167.8 204.519v58.5h-22.03a7.5 7.5 0 1 0 0 15h32.03a22.532 22.532 0 0 1 20.945 14.298c-16.478 1.126-26.054 5.282-35.354 9.323-9.914 4.31-19.279 8.379-38.429 8.379s-28.514-4.07-38.429-8.379c-10.884-4.73-22.14-9.621-44.408-9.621-22.267 0-33.522 4.892-44.406 9.621-9.914 4.31-19.278 8.379-38.427 8.379-19.148 0-28.511-4.07-38.425-8.378-10.884-4.73-22.138-9.622-44.405-9.622-22.268 0-33.522 4.892-44.406 9.622-9.914 4.309-19.277 8.378-38.426 8.378s-28.512-4.07-38.426-8.378c-9.298-4.041-18.874-8.198-35.35-9.324a22.532 22.532 0 0 1 20.945-14.298H412.47a7.5 7.5 0 0 0 0-15H47.5v-58.5a207.995 207.995 0 0 1 54.203-140.234 7.5 7.5 0 0 0-11.098-10.092 222.965 222.965 0 0 0-58.106 150.326v58.843A37.555 37.555 0 0 0 .044 441.681a7.556 7.556 0 0 0-.046.815c0 .113.012.223.017.335-.004.222-.017.442-.017.665v16a37.542 37.542 0 0 0 37.5 37.5h437a37.542 37.542 0 0 0 37.5-37.5v-16c0-.223-.013-.443-.017-.665.005-.112.017-.222.017-.335ZM301.031 115.404c-3.621.972-7.725 2.075-10.826 5.175-3.101 3.102-4.203 7.205-5.176 10.826-.281 1.048-.666 2.48-1.027 3.435-.99-.165-2.389-.536-3.414-.808-3.646-.968-7.78-2.068-12.059-.92-4.174 1.117-7.142 4.084-9.762 6.703-.771.772-1.937 1.937-2.769 2.594-.832-.657-1.997-1.822-2.769-2.594-2.62-2.619-5.588-5.586-9.763-6.704a14.843 14.843 0 0 0-3.854-.488 32.05 32.05 0 0 0-8.204 1.408c-1.026.273-2.424.644-3.415.809-.246-.65-.5-1.521-.729-2.343l-.006-.024c-.104-.375-.204-.742-.292-1.068-.972-3.62-2.074-7.725-5.176-10.827-3.1-3.1-7.204-4.202-10.825-5.175-1.047-.28-2.48-.666-3.435-1.026.165-.991.536-2.39.808-3.415.967-3.647 2.063-7.78.92-12.058-1.115-4.173-4.084-7.143-6.704-9.762-.771-.773-1.936-1.938-2.593-2.77.657-.832 1.822-1.997 2.593-2.77 2.62-2.619 5.589-5.588 6.704-9.762 1.143-4.278.047-8.412-.92-12.06-.271-1.024-.642-2.422-.808-3.413.955-.36 2.388-.745 3.435-1.027 3.622-.972 7.726-2.074 10.826-5.175 3.101-3.101 4.203-7.205 5.176-10.826.282-1.048.666-2.48 1.027-3.435.99.165 2.389.536 3.414.808 3.646.966 7.78 2.064 12.059.92 4.174-1.116 7.142-4.084 9.762-6.703.772-.772 1.937-1.937 2.77-2.594.831.657 1.997 1.822 2.768 2.594 2.62 2.619 5.589 5.587 9.763 6.704 4.28 1.145 8.412.047 12.058-.92 1.025-.273 2.424-.644 3.415-.809.36.954.746 2.388 1.027 3.436.973 3.621 2.075 7.724 5.176 10.826 3.1 3.1 7.204 4.202 10.825 5.175 1.048.281 2.48.666 3.435 1.026-.165.991-.536 2.39-.808 3.415-.967 3.647-2.063 7.78-.92 12.058 1.116 4.174 4.084 7.143 6.704 9.763.771.772 1.936 1.937 2.593 2.77-.657.831-1.822 1.996-2.593 2.769-2.62 2.619-5.588 5.588-6.704 9.762-1.143 4.279-.047 8.412.92 12.06.272 1.024.642 2.422.808 3.413-.955.36-2.387.745-3.435 1.027Zm195.967 344.092a22.526 22.526 0 0 1-22.5 22.5h-437a22.526 22.526 0 0 1-22.5-22.5v-9.268c14.279.916 22.402 4.441 30.926 8.146 10.884 4.73 22.138 9.622 44.405 9.622s33.522-4.892 44.405-9.621c9.914-4.31 19.278-8.379 38.427-8.379s28.512 4.07 38.426 8.379c10.883 4.73 22.138 9.621 44.404 9.621 22.268 0 33.522-4.892 44.406-9.621 9.914-4.31 19.278-8.379 38.427-8.379 19.15 0 28.515 4.07 38.43 8.379 10.884 4.73 22.139 9.621 44.407 9.621s33.524-4.892 44.408-9.621c8.524-3.706 16.648-7.23 30.93-8.147Z"></path></svg>