<svg xmlns="http://www.w3.org/2000/svg" viewBox="0 0 32 32" id="pants"><path fill="#3f6db5" d="M26.123 28h-6.24c-.525 0-.989-.341-1.145-.842L16 18.4l-2.737 8.758c-.156.501-.62.842-1.145.842h-6.24a1.2 1.2 0 0 1-1.198-1.275L5.8 8.8h20.4l1.12 17.925A1.2 1.2 0 0 1 26.123 28z"></path><path fill="#1d52a4" d="m5.283 17.078.656.086a2.4 2.4 0 0 0 2.691-2.068l.78-5.949H5.778l-.495 7.931zm21.434-.012-.495-7.919h-3.663l.779 5.949a2.4 2.4 0 0 0 2.691 2.068l.605-.079.083-.019z"></path><path fill="#b4daf4" d="M26.2 8.8H5.8V5a1 1 0 0 1 1-1h18.4a1 1 0 0 1 1 1v3.8z"></path><path d="M26.7 8.784V5c0-.827-.673-1.5-1.5-1.5H6.8c-.827 0-1.5.673-1.5 1.5v3.784l-.514 8.222-.002.007c-.001.005.001.01.001.015l-.604 9.666c-.029.467.138.93.458 1.271.32.34.771.536 1.239.536h6.24c.748 0 1.399-.479 1.623-1.193l2.26-7.23 2.26 7.231a1.693 1.693 0 0 0 1.623 1.193h6.24c.467 0 .919-.195 1.239-.536a1.71 1.71 0 0 0 .458-1.271L26.7 8.784zm-.511 7.855-.225.03a1.902 1.902 0 0 1-2.131-1.637l-.75-5.732h2.648l.458 7.339zM6.3 5a.5.5 0 0 1 .5-.5h18.4a.5.5 0 0 1 .5.5v3.3h-8V6.712a.58.58 0 0 0 .1-.312.6.6 0 0 0-1.2 0c0 .117.042.22.1.312V8.3h-1.4V6.712a.58.58 0 0 0 .1-.312.6.6 0 0 0-1.2 0c0 .117.042.22.1.312V8.3h-8V5zm-.03 4.3h2.616l-.751 5.732a1.901 1.901 0 0 1-2.131 1.637l-.193-.025L6.27 9.3zm20.363 17.979a.692.692 0 0 1-.51.221h-6.24a.698.698 0 0 1-.668-.491l-2.737-8.758a.501.501 0 0 0-.955 0l-2.737 8.757a.698.698 0 0 1-.668.492h-6.24a.692.692 0 0 1-.51-.221.688.688 0 0 1-.188-.523l.569-9.113.126.016a2.905 2.905 0 0 0 3.252-2.498L9.894 9.3H14.3v5.5a.5.5 0 0 0 1 0V9.3h1.4v3.1a.5.5 0 0 0 1 0V9.3h4.374l.768 5.862a2.905 2.905 0 0 0 3.252 2.498l.157-.021.57 9.117a.692.692 0 0 1-.188.523z"></path><path d="m24.646 23.561-1.344 1.344-.521-.521a.5.5 0 0 0-.707.707l.875.875a.498.498 0 0 0 .708 0l1.697-1.697a.5.5 0 0 0-.708-.708z"></path></svg>