<svg xmlns="http://www.w3.org/2000/svg" enable-background="new 0 0 512 512" viewBox="0 0 512 512" id="puffer-jacket"><linearGradient id="a" x1="461" x2="461" y1="474.667" y2="501.718" gradientUnits="userSpaceOnUse"><stop offset=".337" stop-color="#dfc206"></stop><stop offset="1" stop-color="#f8d707"></stop></linearGradient><path fill="url(#a)" d="M441,507h40c5.5,0,10-4.5,10-10v-58h-60v58C431,502.5,435.5,507,441,507z"></path><linearGradient id="b" x1="51" x2="51" y1="474.667" y2="501.718" gradientUnits="userSpaceOnUse"><stop offset=".337" stop-color="#dfc206"></stop><stop offset="1" stop-color="#f8d707"></stop></linearGradient><path fill="url(#b)" d="M31,507h40c5.5,0,10-4.5,10-10v-58H21v58C21,502.5,25.5,507,31,507z"></path><linearGradient id="c" x1="256" x2="256" y1="443.333" y2="469.019" gradientUnits="userSpaceOnUse"><stop offset=".337" stop-color="#dfc206"></stop><stop offset="1" stop-color="#f8d707"></stop></linearGradient><path fill="url(#c)" d="M386,473H126c-5.5,0-10-4.5-10-10v-97.3h280V463C396,468.5,391.5,473,386,473z"></path><radialGradient id="d" cx="256" cy="284" r="273.046" gradientUnits="userSpaceOnUse"><stop offset="0" stop-color="#dfc206"></stop><stop offset=".591" stop-color="#f8d707"></stop></radialGradient><path fill="url(#d)" d="M396.8,117.6L341,95H171l-55.8,22.6c-50,20.3-88,62.4-103.1,114.2l0,0c-4.7,16-7,32.7-7,49.4V463c0,5.5,4.5,10,10,10h72c5.5,0,10-4.5,10-10v-24h318v24c0,5.5,4.5,10,10,10h72c5.5,0,10-4.5,10-10V281.2c0-16.7-2.4-33.3-7-49.4l0,0C484.9,180,446.9,137.9,396.8,117.6z"></path><radialGradient id="e" cx="256" cy="255.667" r="196.501" gradientUnits="userSpaceOnUse"><stop offset=".928" stop-color="#dfc206"></stop><stop offset="1" stop-color="#f8d707"></stop></radialGradient><path fill="url(#e)" d="M438,292.3H74c-7.7,0-14-6.3-14-14V233c0-7.7,6.3-14,14-14h364c7.7,0,14,6.3,14,14v45.3C452,286.1,445.7,292.3,438,292.3z"></path><radialGradient id="f" cx="256" cy="329" r="196.501" gradientUnits="userSpaceOnUse"><stop offset=".928" stop-color="#dfc206"></stop><stop offset="1" stop-color="#f8d707"></stop></radialGradient><path fill="url(#f)" d="M438,365.7H74c-7.7,0-14-6.3-14-14v-45.3c0-7.7,6.3-14,14-14h364c7.7,0,14,6.3,14,14v45.3C452,359.4,445.7,365.7,438,365.7z"></path><radialGradient id="g" cx="256" cy="402.333" r="196.501" gradientUnits="userSpaceOnUse"><stop offset=".928" stop-color="#dfc206"></stop><stop offset="1" stop-color="#f8d707"></stop></radialGradient><path fill="url(#g)" d="M438,439H74c-7.7,0-14-6.3-14-14v-45.3c0-7.7,6.3-14,14-14h364c7.7,0,14,6.3,14,14V425C452,432.7,445.7,439,438,439z"></path><linearGradient id="h" x1="456.914" x2="456.914" y1="217.25" y2="234.534" gradientUnits="userSpaceOnUse"><stop offset=".271" stop-color="#f8d707" stop-opacity="0"></stop><stop offset="1" stop-color="#dfc206"></stop></linearGradient><path fill="url(#h)" d="M410,248v-29h85.7c1.6,4.2,3,8.5,4.3,12.8l0,0c1.6,5.3,2.8,10.7,3.9,16.2H410z"></path><linearGradient id="i" x1="458.133" x2="458.133" y1="293.95" y2="313.498" gradientUnits="userSpaceOnUse"><stop offset=".271" stop-color="#f8d707" stop-opacity="0"></stop><stop offset="1" stop-color="#dfc206"></stop></linearGradient><rect width="97" height="29" x="409.6" y="294.1" fill="url(#i)"></rect><linearGradient id="j" x1="458.133" x2="458.133" y1="368.833" y2="388.381" gradientUnits="userSpaceOnUse"><stop offset=".271" stop-color="#f8d707" stop-opacity="0"></stop><stop offset="1" stop-color="#dfc206"></stop></linearGradient><rect width="97" height="29" x="409.6" y="369" fill="url(#j)"></rect><linearGradient id="k" x1="-843.086" x2="-843.086" y1="217.25" y2="234.534" gradientTransform="matrix(-1 0 0 1 -788 0)" gradientUnits="userSpaceOnUse"><stop offset=".271" stop-color="#f8d707" stop-opacity="0"></stop><stop offset="1" stop-color="#dfc206"></stop></linearGradient><path fill="url(#k)" d="M102,248v-29H16.3c-1.6,4.2-3,8.5-4.3,12.8l0,0c-1.6,5.3-2.8,11.2-3.9,16.2H102z"></path><linearGradient id="l" x1="-841.867" x2="-841.867" y1="293.95" y2="313.498" gradientTransform="matrix(-1 0 0 1 -788 0)" gradientUnits="userSpaceOnUse"><stop offset=".271" stop-color="#f8d707" stop-opacity="0"></stop><stop offset="1" stop-color="#dfc206"></stop></linearGradient><rect width="97" height="29" x="5.4" y="294.1" fill="url(#l)"></rect><linearGradient id="m" x1="-841.867" x2="-841.867" y1="368.833" y2="388.381" gradientTransform="matrix(-1 0 0 1 -788 0)" gradientUnits="userSpaceOnUse"><stop offset=".271" stop-color="#f8d707" stop-opacity="0"></stop><stop offset="1" stop-color="#dfc206"></stop></linearGradient><rect width="97" height="29" x="5.4" y="369" fill="url(#m)"></rect><path fill="#dfc206" d="M102 224v-12.1c0-26.2-11.3-51.1-31-68.4-2.6 2.1-5.2 4.3-7.7 6.6l.5.5C81.7 166 92 188.3 92 211.9V224H102zM448.1 150.5l.5-.5c-2.5-2.3-5.1-4.4-7.7-6.6-19.7 17.3-31 42.2-31 68.4V224h10v-12.1C420 188.3 430.3 166 448.1 150.5z"></path><radialGradient id="n" cx="256.5" cy="38" r="73.57" gradientUnits="userSpaceOnUse"><stop offset=".197" stop-color="#f8d707"></stop><stop offset=".775" stop-color="#fbe76a"></stop></radialGradient><path fill="url(#n)" d="M256,5c-46.9,0-85,13.4-85,30v60c0,16.6,38.1,30,85,30s85-13.4,85-30V35C341,18.4,302.9,5,256,5z"></path><path fill="#dfc206" d="M196.6,35c10.3,4.7,31,10,59.4,10s49.2-5.3,59.4-10c-10.3-4.7-31-10-59.4-10S206.8,30.3,196.6,35z"></path><linearGradient id="o" x1="256" x2="256" y1="361" y2="422.075" gradientUnits="userSpaceOnUse"><stop offset=".265" stop-color="#fbe76a"></stop><stop offset="1" stop-color="#f8d707"></stop></linearGradient><path fill="url(#o)" d="M417,439H95c-7.7,0-14-6.3-14-14v-45.3c0-7.7,6.3-14,14-14h322c7.7,0,14,6.3,14,14V425C431,432.7,424.7,439,417,439z"></path><linearGradient id="p" x1="256" x2="256" y1="295" y2="351.624" gradientUnits="userSpaceOnUse"><stop offset=".265" stop-color="#fbe76a"></stop><stop offset="1" stop-color="#f8d707"></stop></linearGradient><path fill="url(#p)" d="M417,365.7H95c-7.7,0-14-6.3-14-14v-45.3c0-7.7,6.3-14,14-14h322c7.7,0,14,6.3,14,14v45.3C431,359.4,424.7,365.7,417,365.7z"></path><linearGradient id="q" x1="256" x2="256" y1="229.333" y2="266.8" gradientUnits="userSpaceOnUse"><stop offset=".265" stop-color="#fbe76a"></stop><stop offset="1" stop-color="#f8d707"></stop></linearGradient><path fill="url(#q)" d="M417,292.3H95c-7.7,0-14-6.3-14-14V233c0-7.7,6.3-14,14-14h322c7.7,0,14,6.3,14,14v45.3C431,286.1,424.7,292.3,417,292.3z"></path><rect width="10" height="428" x="251" y="45" fill="#dfc206"></rect><path fill="#3179af" d="M266,85h-20V55c0-5.5,4.5-10,10-10h0c5.5,0,10,4.5,10,10V85z"></path></svg>