<svg xmlns="http://www.w3.org/2000/svg" enable-background="new 0 0 64 64" viewBox="0 0 64 64" id="tshirt"><path fill="#00437e" d="M38,13l-0.02,0.1C37.41,15.95,34.91,18,32,18c-1.46,0-2.81-0.51-3.87-1.38s-1.83-2.1-2.11-3.52
		L26,13H38z"></path><path fill="#d08e7a" d="M33,10h-2V6c0-0.552,0.448-1,1-1h0.107C32.6,5,33,4.6,33,4.107c0-0.537-0.362-1.017-0.825-1.093
				c-0.305-0.049-0.596,0.03-0.823,0.224C31.128,3.428,31,3.706,31,4h-2c0-0.881,0.385-1.714,1.057-2.286
				c0.671-0.571,1.561-0.816,2.439-0.674C33.924,1.273,35,2.591,35,4.107c0,1.284-0.84,2.375-2,2.752V10z"></path><path fill="#a44b2f" d="M32,15L32,15c1.312,0,2.604,0.329,3.756,0.958l7.726,4.214C44.478,20.715,45.595,21,46.73,21h0
			c0.702,0,1.27-0.569,1.27-1.27v0c0-0.452-0.24-0.87-0.63-1.097l-9.983-5.823c-0.913-0.532-1.691-1.266-2.277-2.145l0,0
			C34.416,9.624,33.249,9,32,9h0h0c-1.249,0-2.416,0.624-3.109,1.664l0,0c-0.586,0.879-1.365,1.613-2.277,2.145l-9.983,5.823
			C16.24,18.86,16,19.278,16,19.73v0c0,0.702,0.569,1.27,1.27,1.27h0c1.135,0,2.252-0.285,3.248-0.828l7.726-4.214
			C29.396,15.329,30.688,15,32,15L32,15z"></path><path fill="#c7644a" d="M47.37,18.632l-9.983-5.823c-0.913-0.532-1.691-1.266-2.277-2.145
			c-0.15-0.225-0.326-0.427-0.517-0.611C34.398,10.022,34.201,10,34,10c-1.25,0-2.416,0.624-3.109,1.664
			c-0.586,0.879-1.365,1.613-2.277,2.145l-9.983,5.823C18.24,19.86,18,20.278,18,20.73c0,0.079,0.031,0.147,0.045,0.222
			c0.865-0.099,1.705-0.361,2.474-0.78l7.726-4.214C29.396,15.329,30.688,15,32,15c1.312,0,2.604,0.329,3.756,0.958l7.726,4.214
			C44.478,20.715,45.595,21,46.73,21c0.702,0,1.27-0.569,1.27-1.27C48,19.278,47.76,18.86,47.37,18.632z"></path><path fill="#045cbc" d="M55,32l-6,5l-4-5v28c-3.98,1.33-8.14,2-12.33,2h-1.34c-4.19,0-8.35-0.67-12.33-2V32l-4,5l-6-5
		l0.61-2.75c0.45-2.05,1.15-4.05,2.05-5.93c0.9-1.89,2.02-3.68,3.34-5.32l0.47-0.16C19.15,16.62,22.68,14.99,26,13l0.02,0.1
		c0.28,1.42,1.05,2.65,2.11,3.52S30.54,18,32,18c2.91,0,5.41-2.05,5.98-4.9L38,13c3.32,1.99,6.85,3.62,10.53,4.84L49,18
		c2.63,3.29,4.48,7.14,5.39,11.25L55,32z"></path><path fill="#016ed9" d="M49,18l-0.47-0.16C44.85,16.62,41.32,14.99,38,13l-0.013,0.066c-0.448,2.24-2.081,4.111-4.287,4.705
		c-2.093,0.564-4.107,0.049-5.57-1.152c-1.06-0.87-1.83-2.1-2.11-3.52L26,13c-1.577,0.945-3.205,1.803-4.871,2.581l0.765,15.304
		C22.532,43.642,32.309,54.064,45,55.514l0,0V32l4,5l6-5l-0.61-2.75C53.48,25.14,51.63,21.29,49,18z"></path><path fill="#004e9c" d="M20 32h-2v-.838c0-1.99-.319-3.957-.949-5.846l1.897-.632C19.646 26.777 20 28.957 20 31.162V32zM46 32h-2v-.838c0-2.206.354-4.385 1.051-6.478l1.897.632C46.319 27.205 46 29.172 46 31.162V32z"></path><rect width="26" height="4" x="19" y="32" fill="#c2d0e8"></rect><path fill="#c2d0e8" d="M32,58c-3.981,0-7.942-0.555-11.769-1.648L19,56v4c3.98,1.33,8.14,2,12.33,2h1.34
		c4.19,0,8.35-0.67,12.33-2v-4l-1.231,0.352C39.942,57.445,35.981,58,32,58z"></path><path fill="#eff2f3" d="M32 21c4.008 0 7.525-2.644 8.707-6.482l.002-.005C39.792 14.034 38.888 13.532 38 13l-.02.1C37.41 15.95 34.91 18 32 18c-1.46 0-2.81-.51-3.87-1.38s-1.83-2.1-2.11-3.52L26 13c-.889.533-1.798 1.031-2.717 1.51l.004.012C24.431 18.323 27.967 21 32 21zM22.677 36H45v-4H22.001C22.127 33.365 22.349 34.702 22.677 36z"></path></svg>