<svg xmlns="http://www.w3.org/2000/svg" data-name="Layer 3" viewBox="0 0 64 64" id="jacket"><path fill="#a37765" d="M45.621,22.621l3.317,3.317A42.937,42.937,0,0,1,60,45h0l2,4-6,3-2-4h0a67.313,67.313,0,0,1-8.493-12.986L45,34l1,6.491a86.2,86.2,0,0,1,1,13.1h0A3.415,3.415,0,0,1,46,56h0l.779,1.559a2.09,2.09,0,0,1,.221.934h0a2.09,2.09,0,0,1-1.429,1.983h0A29.67,29.67,0,0,1,36.182,62H27.818a29.67,29.67,0,0,1-9.389-1.524h0A2.09,2.09,0,0,1,17,58.493h0a2.09,2.09,0,0,1,.221-.934L18,56h0a3.415,3.415,0,0,1-1-2.414h0a86.2,86.2,0,0,1,1-13.095L19,34l-.507,1.014A67.313,67.313,0,0,1,10,48h0L8,52,2,49l2-4H4A42.937,42.937,0,0,1,15.062,25.938l3.317-3.317Z"></path><path fill="#bf9377" d="M60,45A42.937,42.937,0,0,0,48.938,25.938l-3.317-3.317H21.378l-3.316,3.317A42.937,42.937,0,0,0,7,45L4.4,50.2,8,52l2-4a67.313,67.313,0,0,0,8.493-12.986L19,34l-1,6.491a86.2,86.2,0,0,0-1,13.1A3.415,3.415,0,0,0,18,56l-.779,1.559a2.089,2.089,0,0,0,1.208,2.917A29.67,29.67,0,0,0,27.818,62h8.364a29.67,29.67,0,0,0,9.389-1.524,2.089,2.089,0,0,0,1.208-2.917L46,56a3.415,3.415,0,0,0,1-2.414,86.2,86.2,0,0,0-1-13.095L45,34l.507,1.014A67.313,67.313,0,0,0,54,48l2,4,6-3Z"></path><path fill="#a37765" d="M34,57.96H30a49.977,49.977,0,0,1-11.733-1.883L18,56l-.779,1.559a2.089,2.089,0,0,0,1.208,2.917A29.67,29.67,0,0,0,27.818,62h8.364a29.67,29.67,0,0,0,9.389-1.524,2.089,2.089,0,0,0,1.208-2.917L46,56l-.269.077A50.012,50.012,0,0,1,34,57.96Z"></path><rect width="24" height="10" x="20" y="13" fill="#785349"></rect><path fill="#bf9377" d="M39,27V22.333h0A2.334,2.334,0,0,0,36.667,20H27.333A2.334,2.334,0,0,0,25,22.333h0V27"></path><polyline fill="#785349" points="10 48 4 45 2 49 8 52"></polyline><polyline fill="#785349" points="60 45 54 48 54 48 56 52 62 49"></polyline><path fill="#5e5e5e" d="M34,20V60a2,2,0,0,1-2,2h0a2,2,0,0,1-2-2V20"></path><path fill="#4c4c4c" d="M30,20V60a2,2,0,0,0,2,2V20Z"></path><rect width="2" height="7.071" x="21.5" y="45.964" fill="#785349" transform="rotate(-8.13 22.497 49.499)"></rect><rect width="7.071" height="2" x="37.964" y="48.5" fill="#785349" transform="rotate(-81.858 41.5 49.5)"></rect><path fill="#916658" d="M32,2h0a12.655,12.655,0,0,1,9.791,4.636c.8.975,1.626,1.987,2.38,2.91A12.5,12.5,0,0,1,47,17.464h0a10.344,10.344,0,0,1-4.606,8.607h0A5.533,5.533,0,0,1,39.325,27h0A2.325,2.325,0,0,1,37,24.675h0a2.325,2.325,0,0,1,1.589-2.205l1.629-.543A4.067,4.067,0,0,0,43,18.068h0A4.063,4.063,0,0,0,38.937,14H25.063A4.063,4.063,0,0,0,21,18.068h0a4.067,4.067,0,0,0,2.782,3.859l1.629.543A2.325,2.325,0,0,1,27,24.675h0A2.325,2.325,0,0,1,24.675,27h0a5.533,5.533,0,0,1-3.069-.929h0A10.344,10.344,0,0,1,17,17.464h0a12.5,12.5,0,0,1,2.827-7.918c.754-.923,1.583-1.935,2.38-2.91A12.655,12.655,0,0,1,32,2Z"></path><path fill="#a37765" d="M43,18.068a4.067,4.067,0,0,1-2.782,3.859l-1.629.543A2.325,2.325,0,0,0,39.325,27h0a5.533,5.533,0,0,0,3.069-.929A10.344,10.344,0,0,0,47,17.464h0a12.5,12.5,0,0,0-2.827-7.918c-.754-.923-1.583-1.935-2.38-2.91A12.64,12.64,0,0,0,33,2.056a12.64,12.64,0,0,0-8.793,4.58c-.8.975-1.626,1.987-2.38,2.91A12.5,12.5,0,0,0,19,17.464h0a10.344,10.344,0,0,0,4.606,8.607,5.527,5.527,0,0,0,1.863.781,2.319,2.319,0,0,0-.058-4.382l-1.629-.543A4.068,4.068,0,0,1,25.063,14H38.937A4.063,4.063,0,0,1,43,18.068Z"></path></svg>